<?xml version="1.0" encoding="UTF-8" standalone="no"?>
<!DOCTYPE svg PUBLIC "-//W3C//DTD SVG 1.1//EN"
 "http://www.w3.org/Graphics/SVG/1.1/DTD/svg11.dtd">
<!-- Generated by graphviz version 7.1.0 (20230121.1956)
 -->
<!-- Title: trace Pages: 1 -->
<svg width="218pt" height="647pt"
 viewBox="0.00 0.00 217.74 647.00" xmlns="http://www.w3.org/2000/svg" xmlns:xlink="http://www.w3.org/1999/xlink">
<g id="graph0" class="graph" transform="scale(1 1) rotate(0) translate(4 643)">
<title>trace</title>
<polygon fill="white" stroke="none" points="-4,4 -4,-643 213.74,-643 213.74,4 -4,4"/>
<g id="clust1" class="cluster">
<title>cluster_AS4538</title>
<polygon fill="none" stroke="#608686" points="8,-8 8,-91 186,-91 186,-8 8,-8"/>
<text text-anchor="middle" x="97" y="-79" font-family="Times New Roman,serif" font-size="10.00">AS4538</text>
<text text-anchor="middle" x="97" y="-68" font-family="Times New Roman,serif" font-size="10.00">[CMI &#160;(Customer Route)]</text>
</g>
<!-- 58.192.118.142 -->
<g id="node1" class="node">
<title>58.192.118.142</title>
<polygon fill="green" stroke="black" points="16,-16.5 16,-52.5 178,-52.5 178,-16.5 16,-16.5"/>
<text text-anchor="middle" x="67" y="-30.8" font-family="Times New Roman,serif" font-size="14.00">58.192.118.142</text>
<polyline fill="none" stroke="black" points="118,-16.5 118,-52.5"/>
<text text-anchor="middle" x="148" y="-30.8" font-family="Times New Roman,serif" font-size="14.00">http SA</text>
</g>
<!-- 10.208.64.1 -->
<g id="node2" class="node">
<title>10.208.64.1</title>
<ellipse fill="none" stroke="black" cx="148" cy="-621" rx="53.09" ry="18"/>
<text text-anchor="middle" x="148" y="-617.3" font-family="Times New Roman,serif" font-size="14.00">10.208.64.1</text>
</g>
<!-- 10.80.128.141 -->
<g id="node3" class="node">
<title>10.80.128.141</title>
<ellipse fill="none" stroke="black" cx="148" cy="-549" rx="61.99" ry="18"/>
<text text-anchor="middle" x="148" y="-545.3" font-family="Times New Roman,serif" font-size="14.00">10.80.128.141</text>
</g>
<!-- 10.208.64.1&#45;&gt;10.80.128.141 -->
<g id="edge1" class="edge">
<title>10.208.64.1&#45;&gt;10.80.128.141</title>
<path fill="none" stroke="#a07070" d="M148,-602.7C148,-595.41 148,-586.73 148,-578.54"/>
<polygon fill="#a07070" stroke="#a07070" points="151.5,-578.62 148,-568.62 144.5,-578.62 151.5,-578.62"/>
</g>
<!-- unk0 -->
<g id="node4" class="node">
<title>unk0</title>
<ellipse fill="none" stroke="black" cx="148" cy="-477" rx="28.7" ry="18"/>
<text text-anchor="middle" x="148" y="-473.3" font-family="Times New Roman,serif" font-size="14.00">unk0</text>
</g>
<!-- 10.80.128.141&#45;&gt;unk0 -->
<g id="edge2" class="edge">
<title>10.80.128.141&#45;&gt;unk0</title>
<path fill="none" stroke="#a07070" d="M148,-530.7C148,-523.41 148,-514.73 148,-506.54"/>
<polygon fill="#a07070" stroke="#a07070" points="151.5,-506.62 148,-496.62 144.5,-506.62 151.5,-506.62"/>
</g>
<!-- unk1 -->
<g id="node5" class="node">
<title>unk1</title>
<ellipse fill="none" stroke="black" cx="148" cy="-405" rx="28.7" ry="18"/>
<text text-anchor="middle" x="148" y="-401.3" font-family="Times New Roman,serif" font-size="14.00">unk1</text>
</g>
<!-- unk0&#45;&gt;unk1 -->
<g id="edge3" class="edge">
<title>unk0&#45;&gt;unk1</title>
<path fill="none" stroke="#a07070" d="M148,-458.7C148,-451.41 148,-442.73 148,-434.54"/>
<polygon fill="#a07070" stroke="#a07070" points="151.5,-434.62 148,-424.62 144.5,-434.62 151.5,-434.62"/>
</g>
<!-- unk2 -->
<g id="node6" class="node">
<title>unk2</title>
<ellipse fill="none" stroke="black" cx="148" cy="-333" rx="28.7" ry="18"/>
<text text-anchor="middle" x="148" y="-329.3" font-family="Times New Roman,serif" font-size="14.00">unk2</text>
</g>
<!-- unk1&#45;&gt;unk2 -->
<g id="edge4" class="edge">
<title>unk1&#45;&gt;unk2</title>
<path fill="none" stroke="#a07070" d="M148,-386.7C148,-379.41 148,-370.73 148,-362.54"/>
<polygon fill="#a07070" stroke="#a07070" points="151.5,-362.62 148,-352.62 144.5,-362.62 151.5,-362.62"/>
</g>
<!-- unk3 -->
<g id="node7" class="node">
<title>unk3</title>
<ellipse fill="none" stroke="black" cx="148" cy="-261" rx="28.7" ry="18"/>
<text text-anchor="middle" x="148" y="-257.3" font-family="Times New Roman,serif" font-size="14.00">unk3</text>
</g>
<!-- unk2&#45;&gt;unk3 -->
<g id="edge5" class="edge">
<title>unk2&#45;&gt;unk3</title>
<path fill="none" stroke="#a07070" d="M148,-314.7C148,-307.41 148,-298.73 148,-290.54"/>
<polygon fill="#a07070" stroke="#a07070" points="151.5,-290.62 148,-280.62 144.5,-290.62 151.5,-290.62"/>
</g>
<!-- unk4 -->
<g id="node8" class="node">
<title>unk4</title>
<ellipse fill="none" stroke="black" cx="148" cy="-189" rx="28.7" ry="18"/>
<text text-anchor="middle" x="148" y="-185.3" font-family="Times New Roman,serif" font-size="14.00">unk4</text>
</g>
<!-- unk3&#45;&gt;unk4 -->
<g id="edge6" class="edge">
<title>unk3&#45;&gt;unk4</title>
<path fill="none" stroke="#a07070" d="M148,-242.7C148,-235.41 148,-226.73 148,-218.54"/>
<polygon fill="#a07070" stroke="#a07070" points="151.5,-218.62 148,-208.62 144.5,-218.62 151.5,-218.62"/>
</g>
<!-- unk5 -->
<g id="node9" class="node">
<title>unk5</title>
<ellipse fill="none" stroke="black" cx="148" cy="-117" rx="28.7" ry="18"/>
<text text-anchor="middle" x="148" y="-113.3" font-family="Times New Roman,serif" font-size="14.00">unk5</text>
</g>
<!-- unk4&#45;&gt;unk5 -->
<g id="edge7" class="edge">
<title>unk4&#45;&gt;unk5</title>
<path fill="none" stroke="#a07070" d="M148,-170.7C148,-163.41 148,-154.73 148,-146.54"/>
<polygon fill="#a07070" stroke="#a07070" points="151.5,-146.62 148,-136.62 144.5,-146.62 151.5,-146.62"/>
</g>
<!-- unk5&#45;&gt;58.192.118.142 -->
<g id="edge8" class="edge">
<title>unk5&#45;&gt;58.192.118.142:T80</title>
<path fill="none" stroke="#a07070" d="M148,-98.76C148,-89.25 148,-76.95 148,-64.89"/>
<polygon fill="#a07070" stroke="#a07070" points="151.5,-65.01 148,-55.01 144.5,-65.01 151.5,-65.01"/>
</g>
</g>
</svg>
