<?xml version="1.0" standalone="no"?>
<svg xmlns="http://www.w3.org/2000/svg" xmlns:xlink="http://www.w3.org/1999/xlink" width="766pt" height="657pt" viewBox="0.00 0.00 766.31 656.69">
<g id="graph0" class="graph" transform="translate(4,652.6900024414062) scale(1)" data-name="keywords">

<polygon fill="white" stroke="none" points="-4,4 -4,-652.69 762.31,-652.69 762.31,4 -4,4" style=""/>
<!-- s -->
<!-- 5 -->
<g id="node2" class="node" pointer-events="visible" data-name="5">

<ellipse fill="none" stroke="black" cx="465.24" cy="-626.69" rx="18" ry="18" style=""/>
<ellipse fill="none" stroke="black" cx="465.24" cy="-626.69" rx="22" ry="22" style=""/>
<text text-anchor="middle" x="465.24" y="-622.49" font-family="Times,serif" font-size="14.00" style="">5</text>
</g>
<!-- 9 -->
<g id="node3" class="node" pointer-events="visible" data-name="9">

<ellipse fill="none" stroke="black" cx="372.85" cy="-568.69" rx="18" ry="18" style=""/>
<ellipse fill="none" stroke="black" cx="372.85" cy="-568.69" rx="22" ry="22" style=""/>
<text text-anchor="middle" x="372.85" y="-564.49" font-family="Times,serif" font-size="14.00" style="">9</text>
</g>
<!-- 16 -->
<g id="node4" class="node" pointer-events="visible" data-name="16">

<ellipse fill="none" stroke="black" cx="733.62" cy="-509.69" rx="20.86" ry="20.86" style=""/>
<ellipse fill="none" stroke="black" cx="733.62" cy="-509.69" rx="24.89" ry="24.89" style=""/>
<text text-anchor="middle" x="733.62" y="-505.49" font-family="Times,serif" font-size="14.00" style="">16</text>
</g>
<!-- 22 -->
<g id="node5" class="node" pointer-events="visible" data-name="22">

<ellipse fill="none" stroke="black" cx="557.63" cy="-446.69" rx="20.86" ry="20.86" style=""/>
<ellipse fill="none" stroke="black" cx="557.63" cy="-446.69" rx="24.89" ry="24.89" style=""/>
<text text-anchor="middle" x="557.63" y="-442.49" font-family="Times,serif" font-size="14.00" style="">22</text>
</g>
<!-- 26 -->
<g id="node6" class="node" pointer-events="visible" data-name="26">

<ellipse fill="none" stroke="black" cx="372.85" cy="-385.69" rx="20.86" ry="20.86" style=""/>
<ellipse fill="none" stroke="black" cx="372.85" cy="-385.69" rx="24.89" ry="24.89" style=""/>
<text text-anchor="middle" x="372.85" y="-381.49" font-family="Times,serif" font-size="14.00" style="">26</text>
</g>
<!-- 31 -->
<g id="node7" class="node" pointer-events="visible" data-name="31">

<ellipse fill="none" stroke="black" cx="465.24" cy="-322.69" rx="20.86" ry="20.86" style=""/>
<ellipse fill="none" stroke="black" cx="465.24" cy="-322.69" rx="24.89" ry="24.89" style=""/>
<text text-anchor="middle" x="465.24" y="-318.49" font-family="Times,serif" font-size="14.00" style="">31</text>
</g>
<!-- 33 -->
<g id="node8" class="node" pointer-events="visible" data-name="33">

<ellipse fill="none" stroke="black" cx="280.47" cy="-267.69" rx="20.86" ry="20.86" style=""/>
<ellipse fill="none" stroke="black" cx="280.47" cy="-267.69" rx="24.89" ry="24.89" style=""/>
<text text-anchor="middle" x="280.47" y="-263.49" font-family="Times,serif" font-size="14.00" style="">33</text>
</g>
<!-- 35 -->
<g id="node9" class="node" pointer-events="visible" data-name="35">

<ellipse fill="none" stroke="black" cx="188.08" cy="-208.69" rx="20.86" ry="20.86" style=""/>
<ellipse fill="none" stroke="black" cx="188.08" cy="-208.69" rx="24.89" ry="24.89" style=""/>
<text text-anchor="middle" x="188.08" y="-204.49" font-family="Times,serif" font-size="14.00" style="">35</text>
</g>
<!-- 37 -->
<g id="node10" class="node" pointer-events="visible" data-name="37">

<ellipse fill="none" stroke="black" cx="280.47" cy="-149.69" rx="20.86" ry="20.86" style=""/>
<ellipse fill="none" stroke="black" cx="280.47" cy="-149.69" rx="24.89" ry="24.89" style=""/>
<text text-anchor="middle" x="280.47" y="-145.49" font-family="Times,serif" font-size="14.00" style="">37</text>
</g>
<!-- 43 -->
<g id="node11" class="node" pointer-events="visible" data-name="43">

<ellipse fill="none" stroke="black" cx="557.63" cy="-87.69" rx="20.86" ry="20.86" style=""/>
<ellipse fill="none" stroke="black" cx="557.63" cy="-87.69" rx="24.89" ry="24.89" style=""/>
<text text-anchor="middle" x="557.63" y="-83.49" font-family="Times,serif" font-size="14.00" style="">43</text>
</g>
<!-- 47 -->
<g id="node12" class="node" pointer-events="visible" data-name="47">

<ellipse fill="none" stroke="black" cx="372.85" cy="-24.69" rx="20.86" ry="20.86" style=""/>
<ellipse fill="none" stroke="black" cx="372.85" cy="-24.69" rx="24.89" ry="24.89" style=""/>
<text text-anchor="middle" x="372.85" y="-20.49" font-family="Times,serif" font-size="14.00" style="">47</text>
</g>
<!-- 0 -->
<g id="node13" class="node" pointer-events="visible" data-name="0">

<ellipse fill="none" stroke="black" cx="18" cy="-359.69" rx="18" ry="18" style=""/>
<text text-anchor="middle" x="18" y="-355.49" font-family="Times,serif" font-size="14.00" style="">0</text>
</g>
<!-- 1 -->
<g id="node14" class="node" pointer-events="visible" data-name="1">

<ellipse fill="none" stroke="black" cx="99.69" cy="-574.69" rx="18" ry="18" style=""/>
<text text-anchor="middle" x="99.69" y="-570.49" font-family="Times,serif" font-size="14.00" style="">1</text>
</g>
<!-- 0&#45;&gt;1 -->
<g id="edge1" class="edge" data-name="0-&gt;1">

<path fill="none" stroke="black" d="M24.12,-377.12C33.64,-408.93 55.28,-478.29 79,-534.69 80.92,-539.27 83.12,-544.06 85.33,-548.68" style=""/>
<polygon fill="black" stroke="black" points="82.16,-550.16 89.72,-557.58 88.44,-547.06 82.16,-550.16" style=""/>
<text text-anchor="middle" x="57.5" y="-490.89" font-family="Times,serif" font-size="14.00" style="">b</text>
</g>
<!-- 6 -->
<g id="node18" class="node" pointer-events="visible" data-name="6">

<ellipse fill="none" stroke="black" cx="99.69" cy="-507.69" rx="18" ry="18" style=""/>
<text text-anchor="middle" x="99.69" y="-503.49" font-family="Times,serif" font-size="14.00" style="">6</text>
</g>
<!-- 0&#45;&gt;6 -->
<g id="edge6" class="edge" data-name="0-&gt;6">

<path fill="none" stroke="black" d="M26.32,-375.83C37.03,-399.04 58,-443 79,-478.69 79.98,-480.35 81.01,-482.04 82.08,-483.73" style=""/>
<polygon fill="black" stroke="black" points="79.04,-485.49 87.47,-491.92 84.89,-481.64 79.04,-485.49" style=""/>
<text text-anchor="middle" x="57.5" y="-446.89" font-family="Times,serif" font-size="14.00" style="">c</text>
</g>
<!-- 17 -->
<g id="node27" class="node" pointer-events="visible" data-name="17">

<ellipse fill="none" stroke="black" cx="99.69" cy="-448.69" rx="20.89" ry="20.89" style=""/>
<text text-anchor="middle" x="99.69" y="-444.49" font-family="Times,serif" font-size="14.00" style="">17</text>
</g>
<!-- 0&#45;&gt;17 -->
<g id="edge17" class="edge" data-name="0-&gt;17">

<path fill="none" stroke="black" d="M30.76,-372.83C43.07,-386.58 62.67,-408.46 77.66,-425.2" style=""/>
<polygon fill="black" stroke="black" points="74.73,-427.17 84,-432.29 79.94,-422.5 74.73,-427.17" style=""/>
<text text-anchor="middle" x="57.5" y="-407.89" font-family="Times,serif" font-size="14.00" style="">d</text>
</g>
<!-- 23 -->
<g id="node32" class="node" pointer-events="visible" data-name="23">

<ellipse fill="none" stroke="black" cx="99.69" cy="-389.69" rx="20.89" ry="20.89" style=""/>
<text text-anchor="middle" x="99.69" y="-385.49" font-family="Times,serif" font-size="14.00" style="">23</text>
</g>
<!-- 0&#45;&gt;23 -->
<g id="edge23" class="edge" data-name="0-&gt;23">

<path fill="none" stroke="black" d="M35.13,-365.76C44.92,-369.45 57.71,-374.26 69.25,-378.61" style=""/>
<polygon fill="black" stroke="black" points="67.78,-381.8 78.37,-382.04 70.25,-375.24 67.78,-381.8" style=""/>
<text text-anchor="middle" x="57.5" y="-378.89" font-family="Times,serif" font-size="14.00" style="">e</text>
</g>
<!-- 27 -->
<g id="node35" class="node" pointer-events="visible" data-name="27">

<ellipse fill="none" stroke="black" cx="99.69" cy="-330.69" rx="20.89" ry="20.89" style=""/>
<text text-anchor="middle" x="99.69" y="-326.49" font-family="Times,serif" font-size="14.00" style="">27</text>
</g>
<!-- 0&#45;&gt;27 -->
<g id="edge27" class="edge" data-name="0-&gt;27">

<path fill="none" stroke="black" d="M34.97,-353.21C40.92,-350.85 47.75,-348.19 54,-345.89 58.8,-344.13 63.92,-342.32 68.92,-340.6" style=""/>
<polygon fill="black" stroke="black" points="69.71,-344.03 78.05,-337.49 67.46,-337.4 69.71,-344.03" style=""/>
<text text-anchor="middle" x="57.5" y="-349.89" font-family="Times,serif" font-size="14.00" style="">f</text>
</g>
<!-- 34 -->
<g id="node40" class="node" pointer-events="visible" data-name="34">

<ellipse fill="none" stroke="black" cx="99.69" cy="-208.69" rx="20.89" ry="20.89" style=""/>
<text text-anchor="middle" x="99.69" y="-204.49" font-family="Times,serif" font-size="14.00" style="">34</text>
</g>
<!-- 0&#45;&gt;34 -->
<g id="edge34" class="edge" data-name="0-&gt;34">

<path fill="none" stroke="black" d="M28.78,-344.71C31.21,-340.84 33.76,-336.65 36,-332.69 54.09,-300.73 72.84,-262.93 85.06,-237.54" style=""/>
<polygon fill="black" stroke="black" points="88.07,-239.36 89.23,-228.83 81.75,-236.34 88.07,-239.36" style=""/>
<text text-anchor="middle" x="57.5" y="-302.89" font-family="Times,serif" font-size="14.00" style="">i</text>
</g>
<!-- 38 -->
<g id="node42" class="node" pointer-events="visible" data-name="38">

<ellipse fill="none" stroke="black" cx="99.69" cy="-149.69" rx="20.89" ry="20.89" style=""/>
<text text-anchor="middle" x="99.69" y="-145.49" font-family="Times,serif" font-size="14.00" style="">38</text>
</g>
<!-- 0&#45;&gt;38 -->
<g id="edge38" class="edge" data-name="0-&gt;38">

<path fill="none" stroke="black" d="M29.16,-345.27C31.64,-341.32 34.12,-336.95 36,-332.69 48.09,-305.36 45.97,-296.68 54,-267.89 65.07,-228.24 61.65,-216.03 79,-178.69 79.44,-177.75 79.9,-176.81 80.39,-175.86" style=""/>
<polygon fill="black" stroke="black" points="83.38,-177.69 85.5,-167.31 77.37,-174.11 83.38,-177.69" style=""/>
<text text-anchor="middle" x="57.5" y="-271.89" font-family="Times,serif" font-size="14.00" style="">r</text>
</g>
<!-- 44 -->
<g id="node47" class="node" pointer-events="visible" data-name="44">

<ellipse fill="none" stroke="black" cx="99.69" cy="-89.69" rx="20.89" ry="20.89" style=""/>
<text text-anchor="middle" x="99.69" y="-85.49" font-family="Times,serif" font-size="14.00" style="">44</text>
</g>
<!-- 0&#45;&gt;44 -->
<g id="edge44" class="edge" data-name="0-&gt;44">

<path fill="none" stroke="black" d="M29.49,-345.41C31.97,-341.45 34.36,-337.05 36,-332.69 54.01,-284.76 43.73,-269.06 54,-218.89 63.12,-174.35 60.71,-161.32 79,-119.69 79.56,-118.41 80.18,-117.12 80.84,-115.84" style=""/>
<polygon fill="black" stroke="black" points="83.64,-117.98 85.65,-107.57 77.59,-114.45 83.64,-117.98" style=""/>
<text text-anchor="middle" x="57.5" y="-222.89" font-family="Times,serif" font-size="14.00" style="">v</text>
</g>
<!-- 2 -->
<g id="node15" class="node" pointer-events="visible" data-name="2">

<ellipse fill="none" stroke="black" cx="188.08" cy="-621.69" rx="18" ry="18" style=""/>
<text text-anchor="middle" x="188.08" y="-617.49" font-family="Times,serif" font-size="14.00" style="">2</text>
</g>
<!-- 1&#45;&gt;2 -->
<g id="edge2" class="edge" data-name="1-&gt;2">

<path fill="none" stroke="black" d="M116.14,-583.1C128.79,-589.98 146.95,-599.86 161.73,-607.9" style=""/>
<polygon fill="black" stroke="black" points="159.98,-610.94 170.44,-612.64 163.33,-604.79 159.98,-610.94" style=""/>
<text text-anchor="middle" x="141.89" y="-601.89" font-family="Times,serif" font-size="14.00" style="">r</text>
</g>
<!-- 3 -->
<g id="node16" class="node" pointer-events="visible" data-name="3">

<ellipse fill="none" stroke="black" cx="280.47" cy="-621.69" rx="18" ry="18" style=""/>
<text text-anchor="middle" x="280.47" y="-617.49" font-family="Times,serif" font-size="14.00" style="">3</text>
</g>
<!-- 2&#45;&gt;3 -->
<g id="edge3" class="edge" data-name="2-&gt;3">

<path fill="none" stroke="black" d="M206.51,-621.69C219.01,-621.69 236.15,-621.69 250.67,-621.69" style=""/>
<polygon fill="black" stroke="black" points="250.58,-625.19 260.58,-621.69 250.58,-618.19 250.58,-625.19" style=""/>
<text text-anchor="middle" x="234.27" y="-625.89" font-family="Times,serif" font-size="14.00" style="">e</text>
</g>
<!-- 4 -->
<g id="node17" class="node" pointer-events="visible" data-name="4">

<ellipse fill="none" stroke="black" cx="372.85" cy="-626.69" rx="18" ry="18" style=""/>
<text text-anchor="middle" x="372.85" y="-622.49" font-family="Times,serif" font-size="14.00" style="">4</text>
</g>
<!-- 3&#45;&gt;4 -->
<g id="edge4" class="edge" data-name="3-&gt;4">

<path fill="none" stroke="black" d="M298.89,-622.66C311.4,-623.35 328.53,-624.3 343.06,-625.1" style=""/>
<polygon fill="black" stroke="black" points="342.79,-628.59 352.97,-625.65 343.18,-621.6 342.79,-628.59" style=""/>
<text text-anchor="middle" x="326.66" y="-627.89" font-family="Times,serif" font-size="14.00" style="">a</text>
</g>
<!-- 4&#45;&gt;5 -->
<g id="edge5" class="edge" data-name="4-&gt;5">

<path fill="none" stroke="black" d="M391.28,-626.69C402.71,-626.69 418,-626.69 431.64,-626.69" style=""/>
<polygon fill="black" stroke="black" points="431.54,-630.19 441.54,-626.69 431.54,-623.19 431.54,-630.19" style=""/>
<text text-anchor="middle" x="419.05" y="-630.89" font-family="Times,serif" font-size="14.00" style="">k</text>
</g>
<!-- 7 -->
<g id="node19" class="node" pointer-events="visible" data-name="7">

<ellipse fill="none" stroke="black" cx="188.08" cy="-566.69" rx="18" ry="18" style=""/>
<text text-anchor="middle" x="188.08" y="-562.49" font-family="Times,serif" font-size="14.00" style="">7</text>
</g>
<!-- 6&#45;&gt;7 -->
<g id="edge7" class="edge" data-name="6-&gt;7">

<path fill="none" stroke="black" d="M114.96,-517.44C128.01,-526.35 147.58,-539.72 163.05,-550.28" style=""/>
<polygon fill="black" stroke="black" points="161.02,-553.14 171.26,-555.89 164.97,-547.36 161.02,-553.14" style=""/>
<text text-anchor="middle" x="141.89" y="-540.89" font-family="Times,serif" font-size="14.00" style="">h</text>
</g>
<!-- 10 -->
<g id="node21" class="node" pointer-events="visible" data-name="10">

<ellipse fill="none" stroke="black" cx="188.08" cy="-507.69" rx="20.89" ry="20.89" style=""/>
<text text-anchor="middle" x="188.08" y="-503.49" font-family="Times,serif" font-size="14.00" style="">10</text>
</g>
<!-- 6&#45;&gt;10 -->
<g id="edge10" class="edge" data-name="6-&gt;10">

<path fill="none" stroke="black" d="M118.18,-507.69C128.86,-507.69 142.85,-507.69 155.42,-507.69" style=""/>
<polygon fill="black" stroke="black" points="155.38,-511.19 165.38,-507.69 155.38,-504.19 155.38,-511.19" style=""/>
<text text-anchor="middle" x="141.89" y="-511.89" font-family="Times,serif" font-size="14.00" style="">o</text>
</g>
<!-- 8 -->
<g id="node20" class="node" pointer-events="visible" data-name="8">

<ellipse fill="none" stroke="black" cx="280.47" cy="-567.69" rx="18" ry="18" style=""/>
<text text-anchor="middle" x="280.47" y="-563.49" font-family="Times,serif" font-size="14.00" style="">8</text>
</g>
<!-- 7&#45;&gt;8 -->
<g id="edge8" class="edge" data-name="7-&gt;8">

<path fill="none" stroke="black" d="M206.51,-566.89C219.01,-567.02 236.15,-567.21 250.67,-567.37" style=""/>
<polygon fill="black" stroke="black" points="250.54,-570.87 260.58,-567.48 250.62,-563.87 250.54,-570.87" style=""/>
<text text-anchor="middle" x="234.27" y="-570.89" font-family="Times,serif" font-size="14.00" style="">a</text>
</g>
<!-- 8&#45;&gt;9 -->
<g id="edge9" class="edge" data-name="8-&gt;9">

<path fill="none" stroke="black" d="M298.89,-567.89C310.32,-568.01 325.62,-568.18 339.25,-568.33" style=""/>
<polygon fill="black" stroke="black" points="339.11,-571.83 349.15,-568.44 339.19,-564.83 339.11,-571.83" style=""/>
<text text-anchor="middle" x="326.66" y="-571.89" font-family="Times,serif" font-size="14.00" style="">r</text>
</g>
<!-- 11 -->
<g id="node22" class="node" pointer-events="visible" data-name="11">

<ellipse fill="none" stroke="black" cx="280.47" cy="-507.69" rx="20.89" ry="20.89" style=""/>
<text text-anchor="middle" x="280.47" y="-503.49" font-family="Times,serif" font-size="14.00" style="">11</text>
</g>
<!-- 10&#45;&gt;11 -->
<g id="edge11" class="edge" data-name="10-&gt;11">

<path fill="none" stroke="black" d="M209.14,-507.69C220.53,-507.69 235.04,-507.69 247.92,-507.69" style=""/>
<polygon fill="black" stroke="black" points="247.64,-511.19 257.64,-507.69 247.64,-504.19 247.64,-511.19" style=""/>
<text text-anchor="middle" x="234.27" y="-511.89" font-family="Times,serif" font-size="14.00" style="">n</text>
</g>
<!-- 12 -->
<g id="node23" class="node" pointer-events="visible" data-name="12">

<ellipse fill="none" stroke="black" cx="372.85" cy="-507.69" rx="20.89" ry="20.89" style=""/>
<text text-anchor="middle" x="372.85" y="-503.49" font-family="Times,serif" font-size="14.00" style="">12</text>
</g>
<!-- 11&#45;&gt;12 -->
<g id="edge12" class="edge" data-name="11-&gt;12">

<path fill="none" stroke="black" d="M301.53,-507.69C312.92,-507.69 327.43,-507.69 340.31,-507.69" style=""/>
<polygon fill="black" stroke="black" points="340.02,-511.19 350.02,-507.69 340.02,-504.19 340.02,-511.19" style=""/>
<text text-anchor="middle" x="326.66" y="-511.89" font-family="Times,serif" font-size="14.00" style="">t</text>
</g>
<!-- 13 -->
<g id="node24" class="node" pointer-events="visible" data-name="13">

<ellipse fill="none" stroke="black" cx="465.24" cy="-508.69" rx="20.89" ry="20.89" style=""/>
<text text-anchor="middle" x="465.24" y="-504.49" font-family="Times,serif" font-size="14.00" style="">13</text>
</g>
<!-- 12&#45;&gt;13 -->
<g id="edge13" class="edge" data-name="12-&gt;13">

<path fill="none" stroke="black" d="M393.91,-507.92C405.3,-508.04 419.81,-508.2 432.69,-508.34" style=""/>
<polygon fill="black" stroke="black" points="432.37,-511.84 442.41,-508.45 432.45,-504.84 432.37,-511.84" style=""/>
<text text-anchor="middle" x="419.05" y="-511.89" font-family="Times,serif" font-size="14.00" style="">i</text>
</g>
<!-- 14 -->
<g id="node25" class="node" pointer-events="visible" data-name="14">

<ellipse fill="none" stroke="black" cx="557.63" cy="-509.69" rx="20.89" ry="20.89" style=""/>
<text text-anchor="middle" x="557.63" y="-505.49" font-family="Times,serif" font-size="14.00" style="">14</text>
</g>
<!-- 13&#45;&gt;14 -->
<g id="edge14" class="edge" data-name="13-&gt;14">

<path fill="none" stroke="black" d="M486.3,-508.92C497.69,-509.04 512.2,-509.2 525.08,-509.34" style=""/>
<polygon fill="black" stroke="black" points="524.76,-512.84 534.8,-509.45 524.84,-505.84 524.76,-512.84" style=""/>
<text text-anchor="middle" x="511.43" y="-512.89" font-family="Times,serif" font-size="14.00" style="">n</text>
</g>
<!-- 15 -->
<g id="node26" class="node" pointer-events="visible" data-name="15">

<ellipse fill="none" stroke="black" cx="646.01" cy="-509.69" rx="20.89" ry="20.89" style=""/>
<text text-anchor="middle" x="646.01" y="-505.49" font-family="Times,serif" font-size="14.00" style="">15</text>
</g>
<!-- 14&#45;&gt;15 -->
<g id="edge15" class="edge" data-name="14-&gt;15">

<path fill="none" stroke="black" d="M578.66,-509.69C588.95,-509.69 601.72,-509.69 613.3,-509.69" style=""/>
<polygon fill="black" stroke="black" points="613.27,-513.19 623.27,-509.69 613.27,-506.19 613.27,-513.19" style=""/>
<text text-anchor="middle" x="603.82" y="-513.89" font-family="Times,serif" font-size="14.00" style="">u</text>
</g>
<!-- 15&#45;&gt;16 -->
<g id="edge16" class="edge" data-name="15-&gt;16">

<path fill="none" stroke="black" d="M667.3,-509.69C676.18,-509.69 686.88,-509.69 697.02,-509.69" style=""/>
<polygon fill="black" stroke="black" points="697.01,-513.19 707.01,-509.69 697.01,-506.19 697.01,-513.19" style=""/>
<text text-anchor="middle" x="687.82" y="-513.89" font-family="Times,serif" font-size="14.00" style="">e</text>
</g>
<!-- 18 -->
<g id="node28" class="node" pointer-events="visible" data-name="18">

<ellipse fill="none" stroke="black" cx="188.08" cy="-448.69" rx="20.89" ry="20.89" style=""/>
<text text-anchor="middle" x="188.08" y="-444.49" font-family="Times,serif" font-size="14.00" style="">18</text>
</g>
<!-- 17&#45;&gt;18 -->
<g id="edge18" class="edge" data-name="17-&gt;18">

<path fill="none" stroke="black" d="M120.73,-448.69C131.01,-448.69 143.78,-448.69 155.37,-448.69" style=""/>
<polygon fill="black" stroke="black" points="155.34,-452.19 165.34,-448.69 155.34,-445.19 155.34,-452.19" style=""/>
<text text-anchor="middle" x="141.89" y="-452.89" font-family="Times,serif" font-size="14.00" style="">o</text>
</g>
<!-- 19 -->
<g id="node29" class="node" pointer-events="visible" data-name="19">

<ellipse fill="none" stroke="black" cx="280.47" cy="-448.69" rx="20.89" ry="20.89" style=""/>
<text text-anchor="middle" x="280.47" y="-444.49" font-family="Times,serif" font-size="14.00" style="">19</text>
</g>
<!-- 18&#45;&gt;19 -->
<g id="edge19" class="edge" data-name="18-&gt;19">

<path fill="none" stroke="black" d="M209.14,-448.69C220.53,-448.69 235.04,-448.69 247.92,-448.69" style=""/>
<polygon fill="black" stroke="black" points="247.64,-452.19 257.64,-448.69 247.64,-445.19 247.64,-452.19" style=""/>
<text text-anchor="middle" x="234.27" y="-452.89" font-family="Times,serif" font-size="14.00" style="">u</text>
</g>
<!-- 20 -->
<g id="node30" class="node" pointer-events="visible" data-name="20">

<ellipse fill="none" stroke="black" cx="372.85" cy="-448.69" rx="20.89" ry="20.89" style=""/>
<text text-anchor="middle" x="372.85" y="-444.49" font-family="Times,serif" font-size="14.00" style="">20</text>
</g>
<!-- 19&#45;&gt;20 -->
<g id="edge20" class="edge" data-name="19-&gt;20">

<path fill="none" stroke="black" d="M301.53,-448.69C312.92,-448.69 327.43,-448.69 340.31,-448.69" style=""/>
<polygon fill="black" stroke="black" points="340.02,-452.19 350.02,-448.69 340.02,-445.19 340.02,-452.19" style=""/>
<text text-anchor="middle" x="326.66" y="-452.89" font-family="Times,serif" font-size="14.00" style="">b</text>
</g>
<!-- 21 -->
<g id="node31" class="node" pointer-events="visible" data-name="21">

<ellipse fill="none" stroke="black" cx="465.24" cy="-447.69" rx="20.89" ry="20.89" style=""/>
<text text-anchor="middle" x="465.24" y="-443.49" font-family="Times,serif" font-size="14.00" style="">21</text>
</g>
<!-- 20&#45;&gt;21 -->
<g id="edge21" class="edge" data-name="20-&gt;21">

<path fill="none" stroke="black" d="M393.91,-448.47C405.3,-448.35 419.81,-448.18 432.69,-448.04" style=""/>
<polygon fill="black" stroke="black" points="432.45,-451.55 442.41,-447.93 432.37,-444.55 432.45,-451.55" style=""/>
<text text-anchor="middle" x="419.05" y="-451.89" font-family="Times,serif" font-size="14.00" style="">l</text>
</g>
<!-- 21&#45;&gt;22 -->
<g id="edge22" class="edge" data-name="21-&gt;22">

<path fill="none" stroke="black" d="M486.3,-447.47C496.52,-447.36 509.25,-447.22 521.07,-447.09" style=""/>
<polygon fill="black" stroke="black" points="520.97,-450.59 530.93,-446.98 520.9,-443.59 520.97,-450.59" style=""/>
<text text-anchor="middle" x="511.43" y="-450.89" font-family="Times,serif" font-size="14.00" style="">e</text>
</g>
<!-- 24 -->
<g id="node33" class="node" pointer-events="visible" data-name="24">

<ellipse fill="none" stroke="black" cx="188.08" cy="-389.69" rx="20.89" ry="20.89" style=""/>
<text text-anchor="middle" x="188.08" y="-385.49" font-family="Times,serif" font-size="14.00" style="">24</text>
</g>
<!-- 23&#45;&gt;24 -->
<g id="edge24" class="edge" data-name="23-&gt;24">

<path fill="none" stroke="black" d="M120.73,-389.69C131.01,-389.69 143.78,-389.69 155.37,-389.69" style=""/>
<polygon fill="black" stroke="black" points="155.34,-393.19 165.34,-389.69 155.34,-386.19 155.34,-393.19" style=""/>
<text text-anchor="middle" x="141.89" y="-393.89" font-family="Times,serif" font-size="14.00" style="">l</text>
</g>
<!-- 25 -->
<g id="node34" class="node" pointer-events="visible" data-name="25">

<ellipse fill="none" stroke="black" cx="280.47" cy="-389.69" rx="20.89" ry="20.89" style=""/>
<text text-anchor="middle" x="280.47" y="-385.49" font-family="Times,serif" font-size="14.00" style="">25</text>
</g>
<!-- 24&#45;&gt;25 -->
<g id="edge25" class="edge" data-name="24-&gt;25">

<path fill="none" stroke="black" d="M209.14,-389.69C220.53,-389.69 235.04,-389.69 247.92,-389.69" style=""/>
<polygon fill="black" stroke="black" points="247.64,-393.19 257.64,-389.69 247.64,-386.19 247.64,-393.19" style=""/>
<text text-anchor="middle" x="234.27" y="-393.89" font-family="Times,serif" font-size="14.00" style="">s</text>
</g>
<!-- 25&#45;&gt;26 -->
<g id="edge26" class="edge" data-name="25-&gt;26">

<path fill="none" stroke="black" d="M301.53,-388.81C311.75,-388.35 324.48,-387.79 336.29,-387.27" style=""/>
<polygon fill="black" stroke="black" points="336.33,-390.77 346.16,-386.83 336.02,-383.78 336.33,-390.77" style=""/>
<text text-anchor="middle" x="326.66" y="-391.89" font-family="Times,serif" font-size="14.00" style="">e</text>
</g>
<!-- 28 -->
<g id="node36" class="node" pointer-events="visible" data-name="28">

<ellipse fill="none" stroke="black" cx="188.08" cy="-330.69" rx="20.89" ry="20.89" style=""/>
<text text-anchor="middle" x="188.08" y="-326.49" font-family="Times,serif" font-size="14.00" style="">28</text>
</g>
<!-- 27&#45;&gt;28 -->
<g id="edge28" class="edge" data-name="27-&gt;28">

<path fill="none" stroke="black" d="M120.73,-330.69C131.01,-330.69 143.78,-330.69 155.37,-330.69" style=""/>
<polygon fill="black" stroke="black" points="155.34,-334.19 165.34,-330.69 155.34,-327.19 155.34,-334.19" style=""/>
<text text-anchor="middle" x="141.89" y="-334.89" font-family="Times,serif" font-size="14.00" style="">l</text>
</g>
<!-- 32 -->
<g id="node39" class="node" pointer-events="visible" data-name="32">

<ellipse fill="none" stroke="black" cx="188.08" cy="-271.69" rx="20.89" ry="20.89" style=""/>
<text text-anchor="middle" x="188.08" y="-267.49" font-family="Times,serif" font-size="14.00" style="">32</text>
</g>
<!-- 27&#45;&gt;32 -->
<g id="edge32" class="edge" data-name="27-&gt;32">

<path fill="none" stroke="black" d="M117.35,-319.32C129.7,-310.88 146.77,-299.22 160.94,-289.55" style=""/>
<polygon fill="black" stroke="black" points="162.65,-292.62 168.93,-284.09 158.7,-286.84 162.65,-292.62" style=""/>
<text text-anchor="middle" x="141.89" y="-308.89" font-family="Times,serif" font-size="14.00" style="">o</text>
</g>
<!-- 29 -->
<g id="node37" class="node" pointer-events="visible" data-name="29">

<ellipse fill="none" stroke="black" cx="280.47" cy="-330.69" rx="20.89" ry="20.89" style=""/>
<text text-anchor="middle" x="280.47" y="-326.49" font-family="Times,serif" font-size="14.00" style="">29</text>
</g>
<!-- 28&#45;&gt;29 -->
<g id="edge29" class="edge" data-name="28-&gt;29">

<path fill="none" stroke="black" d="M209.14,-330.69C220.53,-330.69 235.04,-330.69 247.92,-330.69" style=""/>
<polygon fill="black" stroke="black" points="247.64,-334.19 257.64,-330.69 247.64,-327.19 247.64,-334.19" style=""/>
<text text-anchor="middle" x="234.27" y="-334.89" font-family="Times,serif" font-size="14.00" style="">o</text>
</g>
<!-- 30 -->
<g id="node38" class="node" pointer-events="visible" data-name="30">

<ellipse fill="none" stroke="black" cx="372.85" cy="-322.69" rx="20.89" ry="20.89" style=""/>
<text text-anchor="middle" x="372.85" y="-318.49" font-family="Times,serif" font-size="14.00" style="">30</text>
</g>
<!-- 29&#45;&gt;30 -->
<g id="edge30" class="edge" data-name="29-&gt;30">

<path fill="none" stroke="black" d="M301.53,-328.92C312.92,-327.91 327.43,-326.63 340.31,-325.49" style=""/>
<polygon fill="black" stroke="black" points="340.38,-328.99 350.03,-324.63 339.76,-322.02 340.38,-328.99" style=""/>
<text text-anchor="middle" x="326.66" y="-330.89" font-family="Times,serif" font-size="14.00" style="">a</text>
</g>
<!-- 30&#45;&gt;31 -->
<g id="edge31" class="edge" data-name="30-&gt;31">

<path fill="none" stroke="black" d="M393.91,-322.69C404.13,-322.69 416.87,-322.69 428.68,-322.69" style=""/>
<polygon fill="black" stroke="black" points="428.55,-326.19 438.55,-322.69 428.55,-319.19 428.55,-326.19" style=""/>
<text text-anchor="middle" x="419.05" y="-326.89" font-family="Times,serif" font-size="14.00" style="">t</text>
</g>
<!-- 32&#45;&gt;33 -->
<g id="edge33" class="edge" data-name="32-&gt;33">

<path fill="none" stroke="black" d="M209.14,-270.81C219.36,-270.35 232.09,-269.79 243.91,-269.27" style=""/>
<polygon fill="black" stroke="black" points="243.94,-272.77 253.77,-268.83 243.63,-265.78 243.94,-272.77" style=""/>
<text text-anchor="middle" x="234.27" y="-273.89" font-family="Times,serif" font-size="14.00" style="">r</text>
</g>
<!-- 34&#45;&gt;35 -->
<g id="edge35" class="edge" data-name="34-&gt;35">

<path fill="none" stroke="black" d="M120.73,-208.69C129.86,-208.69 140.94,-208.69 151.41,-208.69" style=""/>
<polygon fill="black" stroke="black" points="151.33,-212.19 161.33,-208.69 151.33,-205.19 151.33,-212.19" style=""/>
<text text-anchor="middle" x="141.89" y="-212.89" font-family="Times,serif" font-size="14.00" style="">f</text>
</g>
<!-- 36 -->
<g id="node41" class="node" pointer-events="visible" data-name="36">

<ellipse fill="none" stroke="black" cx="188.08" cy="-145.69" rx="20.89" ry="20.89" style=""/>
<text text-anchor="middle" x="188.08" y="-141.49" font-family="Times,serif" font-size="14.00" style="">36</text>
</g>
<!-- 34&#45;&gt;36 -->
<g id="edge36" class="edge" data-name="34-&gt;36">

<path fill="none" stroke="black" d="M116.94,-196.84C129.53,-187.66 147.21,-174.77 161.66,-164.23" style=""/>
<polygon fill="black" stroke="black" points="163.37,-167.32 169.39,-158.6 159.25,-161.66 163.37,-167.32" style=""/>
<text text-anchor="middle" x="141.89" y="-184.89" font-family="Times,serif" font-size="14.00" style="">n</text>
</g>
<!-- 36&#45;&gt;37 -->
<g id="edge37" class="edge" data-name="36-&gt;37">

<path fill="none" stroke="black" d="M209.14,-146.58C219.36,-147.03 232.09,-147.6 243.91,-148.12" style=""/>
<polygon fill="black" stroke="black" points="243.63,-151.61 253.77,-148.56 243.94,-144.62 243.63,-151.61" style=""/>
<text text-anchor="middle" x="234.27" y="-151.89" font-family="Times,serif" font-size="14.00" style="">t</text>
</g>
<!-- 39 -->
<g id="node43" class="node" pointer-events="visible" data-name="39">

<ellipse fill="none" stroke="black" cx="188.08" cy="-86.69" rx="20.89" ry="20.89" style=""/>
<text text-anchor="middle" x="188.08" y="-82.49" font-family="Times,serif" font-size="14.00" style="">39</text>
</g>
<!-- 38&#45;&gt;39 -->
<g id="edge39" class="edge" data-name="38-&gt;39">

<path fill="none" stroke="black" d="M116.94,-137.84C129.53,-128.66 147.21,-115.77 161.66,-105.23" style=""/>
<polygon fill="black" stroke="black" points="163.37,-108.32 169.39,-99.6 159.25,-102.66 163.37,-108.32" style=""/>
<text text-anchor="middle" x="141.89" y="-125.89" font-family="Times,serif" font-size="14.00" style="">e</text>
</g>
<!-- 40 -->
<g id="node44" class="node" pointer-events="visible" data-name="40">

<ellipse fill="none" stroke="black" cx="280.47" cy="-86.69" rx="20.89" ry="20.89" style=""/>
<text text-anchor="middle" x="280.47" y="-82.49" font-family="Times,serif" font-size="14.00" style="">40</text>
</g>
<!-- 39&#45;&gt;40 -->
<g id="edge40" class="edge" data-name="39-&gt;40">

<path fill="none" stroke="black" d="M209.14,-86.69C220.53,-86.69 235.04,-86.69 247.92,-86.69" style=""/>
<polygon fill="black" stroke="black" points="247.64,-90.19 257.64,-86.69 247.64,-83.19 247.64,-90.19" style=""/>
<text text-anchor="middle" x="234.27" y="-90.89" font-family="Times,serif" font-size="14.00" style="">t</text>
</g>
<!-- 41 -->
<g id="node45" class="node" pointer-events="visible" data-name="41">

<ellipse fill="none" stroke="black" cx="372.85" cy="-87.69" rx="20.89" ry="20.89" style=""/>
<text text-anchor="middle" x="372.85" y="-83.49" font-family="Times,serif" font-size="14.00" style="">41</text>
</g>
<!-- 40&#45;&gt;41 -->
<g id="edge41" class="edge" data-name="40-&gt;41">

<path fill="none" stroke="black" d="M301.53,-86.92C312.92,-87.04 327.43,-87.2 340.31,-87.34" style=""/>
<polygon fill="black" stroke="black" points="339.99,-90.84 350.02,-87.45 340.06,-83.84 339.99,-90.84" style=""/>
<text text-anchor="middle" x="326.66" y="-90.89" font-family="Times,serif" font-size="14.00" style="">u</text>
</g>
<!-- 42 -->
<g id="node46" class="node" pointer-events="visible" data-name="42">

<ellipse fill="none" stroke="black" cx="465.24" cy="-87.69" rx="20.89" ry="20.89" style=""/>
<text text-anchor="middle" x="465.24" y="-83.49" font-family="Times,serif" font-size="14.00" style="">42</text>
</g>
<!-- 41&#45;&gt;42 -->
<g id="edge42" class="edge" data-name="41-&gt;42">

<path fill="none" stroke="black" d="M393.91,-87.69C405.3,-87.69 419.81,-87.69 432.69,-87.69" style=""/>
<polygon fill="black" stroke="black" points="432.41,-91.19 442.41,-87.69 432.41,-84.19 432.41,-91.19" style=""/>
<text text-anchor="middle" x="419.05" y="-91.89" font-family="Times,serif" font-size="14.00" style="">r</text>
</g>
<!-- 42&#45;&gt;43 -->
<g id="edge43" class="edge" data-name="42-&gt;43">

<path fill="none" stroke="black" d="M486.3,-87.69C496.52,-87.69 509.25,-87.69 521.07,-87.69" style=""/>
<polygon fill="black" stroke="black" points="520.93,-91.19 530.93,-87.69 520.93,-84.19 520.93,-91.19" style=""/>
<text text-anchor="middle" x="511.43" y="-91.89" font-family="Times,serif" font-size="14.00" style="">n</text>
</g>
<!-- 45 -->
<g id="node48" class="node" pointer-events="visible" data-name="45">

<ellipse fill="none" stroke="black" cx="188.08" cy="-27.69" rx="20.89" ry="20.89" style=""/>
<text text-anchor="middle" x="188.08" y="-23.49" font-family="Times,serif" font-size="14.00" style="">45</text>
</g>
<!-- 44&#45;&gt;45 -->
<g id="edge45" class="edge" data-name="44-&gt;45">

<path fill="none" stroke="black" d="M116.15,-76.39C122.84,-70.81 130.86,-64.35 138.39,-58.89 145.32,-53.87 153.03,-48.73 160.24,-44.11" style=""/>
<polygon fill="black" stroke="black" points="161.75,-47.29 168.35,-39 158.02,-41.37 161.75,-47.29" style=""/>
<text text-anchor="middle" x="141.89" y="-63.89" font-family="Times,serif" font-size="14.00" style="">o</text>
</g>
<!-- 46 -->
<g id="node49" class="node" pointer-events="visible" data-name="46">

<ellipse fill="none" stroke="black" cx="280.47" cy="-26.69" rx="20.89" ry="20.89" style=""/>
<text text-anchor="middle" x="280.47" y="-22.49" font-family="Times,serif" font-size="14.00" style="">46</text>
</g>
<!-- 45&#45;&gt;46 -->
<g id="edge46" class="edge" data-name="45-&gt;46">

<path fill="none" stroke="black" d="M209.14,-27.47C220.53,-27.35 235.04,-27.18 247.92,-27.04" style=""/>
<polygon fill="black" stroke="black" points="247.68,-30.55 257.64,-26.93 247.6,-23.55 247.68,-30.55" style=""/>
<text text-anchor="middle" x="234.27" y="-31.89" font-family="Times,serif" font-size="14.00" style="">i</text>
</g>
<!-- 46&#45;&gt;47 -->
<g id="edge47" class="edge" data-name="46-&gt;47">

<path fill="none" stroke="black" d="M301.53,-26.25C311.75,-26.02 324.48,-25.74 336.29,-25.48" style=""/>
<polygon fill="black" stroke="black" points="336.24,-28.98 346.16,-25.26 336.08,-21.98 336.24,-28.98" style=""/>
<text text-anchor="middle" x="326.66" y="-30.89" font-family="Times,serif" font-size="14.00" style="">d</text>
</g>
</g>
</svg>