<?xml version="1.0" standalone="no"?>
<svg xmlns="http://www.w3.org/2000/svg" xmlns:xlink="http://www.w3.org/1999/xlink" width="546pt" height="1712pt" viewBox="0.00 0.00 545.66 1711.69">
<g id="graph0" class="graph" transform="translate(4,1707.68994140625) scale(1)" data-name="total">

<polygon fill="white" stroke="none" points="-4,4 -4,-1707.69 541.66,-1707.69 541.66,4 -4,4" style=""/>
<!-- s -->
<!-- 0 -->
<g id="node2" class="node" pointer-events="visible" data-name="0">

<ellipse fill="none" stroke="black" cx="91" cy="-812.69" rx="18" ry="18" style=""/>
<text text-anchor="middle" x="91" y="-808.49" font-family="Times,serif" font-size="14.00" style="">0</text>
</g>
<!-- s&#45;&gt;0 -->
<g id="edge1" class="edge" data-name="s-&gt;0">

<path fill="none" stroke="black" d="M36.19,-812.69C43.77,-812.69 52.9,-812.69 61.46,-812.69" style=""/>
<polygon fill="black" stroke="black" points="61.46,-816.19 71.46,-812.69 61.46,-809.19 61.46,-816.19" style=""/>
</g>
<!-- 1 -->
<g id="node3" class="node" pointer-events="visible" data-name="1">

<ellipse fill="none" stroke="black" cx="219.43" cy="-1681.69" rx="18" ry="18" style=""/>
<ellipse fill="none" stroke="black" cx="219.43" cy="-1681.69" rx="22" ry="22" style=""/>
<text text-anchor="middle" x="219.43" y="-1677.49" font-family="Times,serif" font-size="14.00" style="">1</text>
</g>
<!-- 0&#45;&gt;1 -->
<g id="edge2" class="edge" data-name="0-&gt;1">

<path fill="none" stroke="black" d="M92.29,-831.06C94.05,-938.06 104.03,-1478.65 127,-1548.69 141,-1591.38 173.32,-1632.76 195.53,-1657.73" style=""/>
<polygon fill="black" stroke="black" points="192.86,-1660 202.18,-1665.04 198.04,-1655.29 192.86,-1660" style=""/>
<text text-anchor="middle" x="151.87" y="-1637.89" font-family="Times,serif" font-size="14.00" style="">blank</text>
</g>
<!-- 2 -->
<g id="node4" class="node" pointer-events="visible" data-name="2">

<ellipse fill="none" stroke="black" cx="219.43" cy="-1584.69" rx="18" ry="18" style=""/>
<ellipse fill="none" stroke="black" cx="219.43" cy="-1584.69" rx="22" ry="22" style=""/>
<text text-anchor="middle" x="219.43" y="-1580.49" font-family="Times,serif" font-size="14.00" style="">2</text>
</g>
<!-- 0&#45;&gt;2 -->
<g id="edge3" class="edge" data-name="0-&gt;2">

<path fill="none" stroke="black" d="M91.98,-830.96C92.02,-920.27 94.14,-1311.26 127,-1427.69 141.3,-1478.37 175.83,-1529.71 198.12,-1559.31" style=""/>
<polygon fill="black" stroke="black" points="195.1,-1561.12 203.97,-1566.92 200.66,-1556.86 195.1,-1561.12" style=""/>
<text text-anchor="middle" x="151.87" y="-1531.89" font-family="Times,serif" font-size="14.00" style="">[0-9]</text>
</g>
<!-- 5 -->
<g id="node7" class="node" pointer-events="visible" data-name="5">

<ellipse fill="none" stroke="black" cx="219.43" cy="-1418.69" rx="18" ry="18" style=""/>
<ellipse fill="none" stroke="black" cx="219.43" cy="-1418.69" rx="22" ry="22" style=""/>
<text text-anchor="middle" x="219.43" y="-1414.49" font-family="Times,serif" font-size="14.00" style="">5</text>
</g>
<!-- 0&#45;&gt;5 -->
<g id="edge8" class="edge" data-name="0-&gt;5">

<path fill="none" stroke="black" d="M92.07,-831.15C92.59,-922.82 96.57,-1326.61 127,-1372.69 140.55,-1393.21 166.16,-1404.99 186.84,-1411.48" style=""/>
<polygon fill="black" stroke="black" points="185.68,-1414.79 196.26,-1414.15 187.59,-1408.05 185.68,-1414.79" style=""/>
<text text-anchor="middle" x="151.87" y="-1410.89" font-family="Times,serif" font-size="14.00" style="">[A-Za-z]</text>
</g>
<!-- 0&#45;&gt;5 -->
<g id="edge9" class="edge" data-name="0-&gt;5">

<path fill="none" stroke="black" d="M92.13,-830.9C92.92,-917.82 97.94,-1288.06 127,-1329.69 140.85,-1349.55 159.23,-1335.17 176.74,-1351.89 189.62,-1364.19 185.29,-1372.6 194.74,-1387.69 195.87,-1389.5 197.08,-1391.34 198.34,-1393.16" style=""/>
<polygon fill="black" stroke="black" points="195.2,-1394.8 203.91,-1400.82 200.86,-1390.68 195.2,-1394.8" style=""/>
<text text-anchor="middle" x="151.87" y="-1355.89" font-family="Times,serif" font-size="14.00" style="">_</text>
</g>
<!-- 6 -->
<g id="node9" class="node" pointer-events="visible" data-name="6">

<ellipse fill="none" stroke="black" cx="219.43" cy="-1360.69" rx="18" ry="18" style=""/>
<text text-anchor="middle" x="219.43" y="-1356.49" font-family="Times,serif" font-size="14.00" style="">6</text>
</g>
<!-- 0&#45;&gt;6 -->
<g id="edge13" class="edge" data-name="0-&gt;6">

<path fill="none" stroke="black" d="M92.53,-830.87C95.02,-911.3 106.17,-1233.03 127,-1272.69 140.21,-1297.86 156.3,-1293.14 176.74,-1312.89 185.53,-1321.39 186.71,-1324.48 194.74,-1333.69 196.21,-1335.39 197.74,-1337.14 199.28,-1338.9" style=""/>
<polygon fill="black" stroke="black" points="196.62,-1341.17 205.85,-1346.39 201.89,-1336.56 196.62,-1341.17" style=""/>
<text text-anchor="middle" x="151.87" y="-1316.89" font-family="Times,serif" font-size="14.00" style="">'</text>
</g>
<!-- 10 -->
<g id="node13" class="node" pointer-events="visible" data-name="10">

<ellipse fill="none" stroke="black" cx="219.43" cy="-1269.69" rx="20.89" ry="20.89" style=""/>
<text text-anchor="middle" x="219.43" y="-1265.49" font-family="Times,serif" font-size="14.00" style="">10</text>
</g>
<!-- 0&#45;&gt;10 -->
<g id="edge18" class="edge" data-name="0-&gt;10">

<path fill="none" stroke="black" d="M92.65,-830.64C95.45,-903.87 107.16,-1177.8 127,-1210.69 140.96,-1233.84 167.87,-1249.54 188.9,-1258.89" style=""/>
<polygon fill="black" stroke="black" points="187.28,-1262.01 197.86,-1262.62 189.98,-1255.55 187.28,-1262.01" style=""/>
<text text-anchor="middle" x="151.87" y="-1255.89" font-family="Times,serif" font-size="14.00" style="">"</text>
</g>
<!-- 13 -->
<g id="node17" class="node" pointer-events="visible" data-name="13">

<ellipse fill="none" stroke="black" cx="219.43" cy="-1210.69" rx="20.89" ry="20.89" style=""/>
<text text-anchor="middle" x="219.43" y="-1206.49" font-family="Times,serif" font-size="14.00" style="">13</text>
</g>
<!-- 0&#45;&gt;13 -->
<g id="edge23" class="edge" data-name="0-&gt;13">

<path fill="none" stroke="black" d="M91.98,-831C92.2,-892.61 95.4,-1091.61 127,-1145.69 141.14,-1169.89 168.28,-1187.43 189.33,-1198.14" style=""/>
<polygon fill="black" stroke="black" points="187.79,-1201.28 198.32,-1202.47 190.82,-1194.98 187.79,-1201.28" style=""/>
<text text-anchor="middle" x="151.87" y="-1193.89" font-family="Times,serif" font-size="14.00" style="">/</text>
</g>
<!-- 18 -->
<g id="node20" class="node" pointer-events="visible" data-name="18">

<ellipse fill="none" stroke="black" cx="219.43" cy="-1147.69" rx="20.86" ry="20.86" style=""/>
<ellipse fill="none" stroke="black" cx="219.43" cy="-1147.69" rx="24.89" ry="24.89" style=""/>
<text text-anchor="middle" x="219.43" y="-1143.49" font-family="Times,serif" font-size="14.00" style="">18</text>
</g>
<!-- 0&#45;&gt;18 -->
<g id="edge31" class="edge" data-name="0-&gt;18">

<path fill="none" stroke="black" d="M92.61,-830.82C94.64,-883.49 102.55,-1035.41 127,-1077.69 140.79,-1101.53 166.2,-1119.98 186.75,-1131.94" style=""/>
<polygon fill="black" stroke="black" points="184.89,-1134.91 195.34,-1136.71 188.29,-1128.79 184.89,-1134.91" style=""/>
<text text-anchor="middle" x="151.87" y="-1128.89" font-family="Times,serif" font-size="14.00" style="">+</text>
</g>
<!-- 19 -->
<g id="node21" class="node" pointer-events="visible" data-name="19">

<ellipse fill="none" stroke="black" cx="219.43" cy="-1080.69" rx="20.86" ry="20.86" style=""/>
<ellipse fill="none" stroke="black" cx="219.43" cy="-1080.69" rx="24.89" ry="24.89" style=""/>
<text text-anchor="middle" x="219.43" y="-1076.49" font-family="Times,serif" font-size="14.00" style="">19</text>
</g>
<!-- 0&#45;&gt;19 -->
<g id="edge32" class="edge" data-name="0-&gt;19">

<path fill="none" stroke="black" d="M93.57,-830.96C97.5,-873.84 108.82,-979.58 127,-1009.69 141.22,-1033.24 166.37,-1051.91 186.7,-1064.18" style=""/>
<polygon fill="black" stroke="black" points="184.79,-1067.12 195.2,-1069.09 188.29,-1061.06 184.79,-1067.12" style=""/>
<text text-anchor="middle" x="151.87" y="-1060.89" font-family="Times,serif" font-size="14.00" style="">-</text>
</g>
<!-- 20 -->
<g id="node22" class="node" pointer-events="visible" data-name="20">

<ellipse fill="none" stroke="black" cx="219.43" cy="-1013.69" rx="20.86" ry="20.86" style=""/>
<ellipse fill="none" stroke="black" cx="219.43" cy="-1013.69" rx="24.89" ry="24.89" style=""/>
<text text-anchor="middle" x="219.43" y="-1009.49" font-family="Times,serif" font-size="14.00" style="">20</text>
</g>
<!-- 0&#45;&gt;20 -->
<g id="edge33" class="edge" data-name="0-&gt;20">

<path fill="none" stroke="black" d="M93.33,-830.84C96.02,-857.23 103.96,-906.85 127,-941.69 142.26,-964.76 167.34,-983.74 187.37,-996.42" style=""/>
<polygon fill="black" stroke="black" points="185.37,-999.29 195.73,-1001.5 189.01,-993.31 185.37,-999.29" style=""/>
<text text-anchor="middle" x="151.87" y="-992.89" font-family="Times,serif" font-size="14.00" style="">*</text>
</g>
<!-- 21 -->
<g id="node23" class="node" pointer-events="visible" data-name="21">

<ellipse fill="none" stroke="black" cx="219.43" cy="-946.69" rx="20.86" ry="20.86" style=""/>
<ellipse fill="none" stroke="black" cx="219.43" cy="-946.69" rx="24.89" ry="24.89" style=""/>
<text text-anchor="middle" x="219.43" y="-942.49" font-family="Times,serif" font-size="14.00" style="">21</text>
</g>
<!-- 0&#45;&gt;21 -->
<g id="edge34" class="edge" data-name="0-&gt;21">

<path fill="none" stroke="black" d="M98.32,-829.68C104.23,-844.05 114.08,-864.66 127,-879.69 144.07,-899.56 168.1,-916.87 187.24,-928.93" style=""/>
<polygon fill="black" stroke="black" points="185.37,-931.88 195.73,-934.11 189.02,-925.91 185.37,-931.88" style=""/>
<text text-anchor="middle" x="151.87" y="-924.89" font-family="Times,serif" font-size="14.00" style="">%</text>
</g>
<!-- 22 -->
<g id="node24" class="node" pointer-events="visible" data-name="22">

<ellipse fill="none" stroke="black" cx="219.43" cy="-879.69" rx="20.86" ry="20.86" style=""/>
<ellipse fill="none" stroke="black" cx="219.43" cy="-879.69" rx="24.89" ry="24.89" style=""/>
<text text-anchor="middle" x="219.43" y="-875.49" font-family="Times,serif" font-size="14.00" style="">22</text>
</g>
<!-- 0&#45;&gt;22 -->
<g id="edge35" class="edge" data-name="0-&gt;22">

<path fill="none" stroke="black" d="M106.85,-821.93C113.02,-825.69 120.3,-830 127,-833.69 146.34,-844.34 168.43,-855.48 186.06,-864.14" style=""/>
<polygon fill="black" stroke="black" points="184.51,-867.28 195.03,-868.51 187.58,-860.98 184.51,-867.28" style=""/>
<text text-anchor="middle" x="151.87" y="-862.89" font-family="Times,serif" font-size="14.00" style="">=</text>
</g>
<!-- 24 -->
<g id="node26" class="node" pointer-events="visible" data-name="24">

<ellipse fill="none" stroke="black" cx="219.43" cy="-812.69" rx="20.86" ry="20.86" style=""/>
<ellipse fill="none" stroke="black" cx="219.43" cy="-812.69" rx="24.89" ry="24.89" style=""/>
<text text-anchor="middle" x="219.43" y="-808.49" font-family="Times,serif" font-size="14.00" style="">24</text>
</g>
<!-- 0&#45;&gt;24 -->
<g id="edge37" class="edge" data-name="0-&gt;24">

<path fill="none" stroke="black" d="M109.31,-812.69C128.26,-812.69 159.14,-812.69 183.23,-812.69" style=""/>
<polygon fill="black" stroke="black" points="182.91,-816.19 192.91,-812.69 182.91,-809.19 182.91,-816.19" style=""/>
<text text-anchor="middle" x="151.87" y="-816.89" font-family="Times,serif" font-size="14.00" style="">&lt;</text>
</g>
<!-- 26 -->
<g id="node28" class="node" pointer-events="visible" data-name="26">

<ellipse fill="none" stroke="black" cx="219.43" cy="-745.69" rx="20.86" ry="20.86" style=""/>
<ellipse fill="none" stroke="black" cx="219.43" cy="-745.69" rx="24.89" ry="24.89" style=""/>
<text text-anchor="middle" x="219.43" y="-741.49" font-family="Times,serif" font-size="14.00" style="">26</text>
</g>
<!-- 0&#45;&gt;26 -->
<g id="edge39" class="edge" data-name="0-&gt;26">

<path fill="none" stroke="black" d="M106.86,-803.56C113.03,-799.84 120.31,-795.57 127,-791.89 146.37,-781.26 168.47,-770.07 186.09,-761.37" style=""/>
<polygon fill="black" stroke="black" points="187.62,-764.51 195.06,-756.96 184.54,-758.23 187.62,-764.51" style=""/>
<text text-anchor="middle" x="151.87" y="-795.89" font-family="Times,serif" font-size="14.00" style="">&gt;</text>
</g>
<!-- 28 -->
<g id="node30" class="node" pointer-events="visible" data-name="28">

<ellipse fill="none" stroke="black" cx="219.43" cy="-678.69" rx="20.86" ry="20.86" style=""/>
<ellipse fill="none" stroke="black" cx="219.43" cy="-678.69" rx="24.89" ry="24.89" style=""/>
<text text-anchor="middle" x="219.43" y="-674.49" font-family="Times,serif" font-size="14.00" style="">28</text>
</g>
<!-- 0&#45;&gt;28 -->
<g id="edge41" class="edge" data-name="0-&gt;28">

<path fill="none" stroke="black" d="M98.14,-795.77C103.99,-781.2 113.87,-760.16 127,-744.89 144.01,-725.12 168.04,-708.02 187.2,-696.15" style=""/>
<polygon fill="black" stroke="black" points="188.92,-699.2 195.69,-691.05 185.31,-693.2 188.92,-699.2" style=""/>
<text text-anchor="middle" x="151.87" y="-748.89" font-family="Times,serif" font-size="14.00" style="">!</text>
</g>
<!-- 30 -->
<g id="node32" class="node" pointer-events="visible" data-name="30">

<ellipse fill="none" stroke="black" cx="219.43" cy="-615.69" rx="20.89" ry="20.89" style=""/>
<text text-anchor="middle" x="219.43" y="-611.49" font-family="Times,serif" font-size="14.00" style="">30</text>
</g>
<!-- 0&#45;&gt;30 -->
<g id="edge43" class="edge" data-name="0-&gt;30">

<path fill="none" stroke="black" d="M93.04,-794.62C95.37,-767.82 102.88,-716.94 127,-681.89 142.9,-658.8 169.58,-640.84 190.03,-629.49" style=""/>
<polygon fill="black" stroke="black" points="191.53,-632.66 198.73,-624.88 188.25,-626.47 191.53,-632.66" style=""/>
<text text-anchor="middle" x="151.87" y="-685.89" font-family="Times,serif" font-size="14.00" style="">&amp;</text>
</g>
<!-- 32 -->
<g id="node34" class="node" pointer-events="visible" data-name="32">

<ellipse fill="none" stroke="black" cx="219.43" cy="-556.69" rx="20.89" ry="20.89" style=""/>
<text text-anchor="middle" x="219.43" y="-552.49" font-family="Times,serif" font-size="14.00" style="">32</text>
</g>
<!-- 0&#45;&gt;32 -->
<g id="edge45" class="edge" data-name="0-&gt;32">

<path fill="none" stroke="black" d="M93.37,-794.65C96.92,-751.79 107.52,-645.24 127,-615.89 141.81,-593.59 168.2,-577.85 188.83,-568.24" style=""/>
<polygon fill="black" stroke="black" points="190.16,-571.48 197.91,-564.25 187.35,-565.07 190.16,-571.48" style=""/>
<text text-anchor="middle" x="151.87" y="-619.89" font-family="Times,serif" font-size="14.00" style="">|</text>
</g>
<!-- 34 -->
<g id="node36" class="node" pointer-events="visible" data-name="34">

<ellipse fill="none" stroke="black" cx="219.43" cy="-493.69" rx="20.86" ry="20.86" style=""/>
<ellipse fill="none" stroke="black" cx="219.43" cy="-493.69" rx="24.89" ry="24.89" style=""/>
<text text-anchor="middle" x="219.43" y="-489.49" font-family="Times,serif" font-size="14.00" style="">34</text>
</g>
<!-- 0&#45;&gt;34 -->
<g id="edge47" class="edge" data-name="0-&gt;34">

<path fill="none" stroke="black" d="M92.53,-794.53C94.34,-742.53 101.65,-594.19 127,-553.89 140.55,-532.35 164.95,-516.87 185.13,-507.01" style=""/>
<polygon fill="black" stroke="black" points="186.52,-510.22 194.15,-502.86 183.6,-503.86 186.52,-510.22" style=""/>
<text text-anchor="middle" x="151.87" y="-557.89" font-family="Times,serif" font-size="14.00" style="">,</text>
</g>
<!-- 35 -->
<g id="node37" class="node" pointer-events="visible" data-name="35">

<ellipse fill="none" stroke="black" cx="219.43" cy="-426.69" rx="20.86" ry="20.86" style=""/>
<ellipse fill="none" stroke="black" cx="219.43" cy="-426.69" rx="24.89" ry="24.89" style=""/>
<text text-anchor="middle" x="219.43" y="-422.49" font-family="Times,serif" font-size="14.00" style="">35</text>
</g>
<!-- 0&#45;&gt;35 -->
<g id="edge48" class="edge" data-name="0-&gt;35">

<path fill="none" stroke="black" d="M92.04,-794.58C92.47,-734.53 96.28,-542.91 127,-490.89 140.44,-468.14 165.47,-451.42 185.95,-440.76" style=""/>
<polygon fill="black" stroke="black" points="187.37,-443.96 194.8,-436.4 184.28,-437.68 187.37,-443.96" style=""/>
<text text-anchor="middle" x="151.87" y="-494.89" font-family="Times,serif" font-size="14.00" style="">;</text>
</g>
<!-- 36 -->
<g id="node38" class="node" pointer-events="visible" data-name="36">

<ellipse fill="none" stroke="black" cx="219.43" cy="-359.69" rx="20.86" ry="20.86" style=""/>
<ellipse fill="none" stroke="black" cx="219.43" cy="-359.69" rx="24.89" ry="24.89" style=""/>
<text text-anchor="middle" x="219.43" y="-355.49" font-family="Times,serif" font-size="14.00" style="">36</text>
</g>
<!-- 0&#45;&gt;36 -->
<g id="edge49" class="edge" data-name="0-&gt;36">

<path fill="none" stroke="black" d="M91.69,-794.35C90.83,-726.43 90.58,-489.92 127,-425.89 140.2,-402.68 165.25,-385.43 185.8,-374.36" style=""/>
<polygon fill="black" stroke="black" points="187.37,-377.49 194.69,-369.83 184.19,-371.25 187.37,-377.49" style=""/>
<text text-anchor="middle" x="151.87" y="-429.89" font-family="Times,serif" font-size="14.00" style="">(</text>
</g>
<!-- 37 -->
<g id="node39" class="node" pointer-events="visible" data-name="37">

<ellipse fill="none" stroke="black" cx="219.43" cy="-292.69" rx="20.86" ry="20.86" style=""/>
<ellipse fill="none" stroke="black" cx="219.43" cy="-292.69" rx="24.89" ry="24.89" style=""/>
<text text-anchor="middle" x="219.43" y="-288.49" font-family="Times,serif" font-size="14.00" style="">37</text>
</g>
<!-- 0&#45;&gt;37 -->
<g id="edge50" class="edge" data-name="0-&gt;37">

<path fill="none" stroke="black" d="M92.51,-794.47C94.84,-714.57 105.43,-397.41 127,-358.89 140.11,-335.49 165.34,-318.19 185.98,-307.15" style=""/>
<polygon fill="black" stroke="black" points="187.27,-310.42 194.62,-302.78 184.11,-304.17 187.27,-310.42" style=""/>
<text text-anchor="middle" x="151.87" y="-362.89" font-family="Times,serif" font-size="14.00" style="">)</text>
</g>
<!-- 38 -->
<g id="node40" class="node" pointer-events="visible" data-name="38">

<ellipse fill="none" stroke="black" cx="219.43" cy="-225.69" rx="20.86" ry="20.86" style=""/>
<ellipse fill="none" stroke="black" cx="219.43" cy="-225.69" rx="24.89" ry="24.89" style=""/>
<text text-anchor="middle" x="219.43" y="-221.49" font-family="Times,serif" font-size="14.00" style="">38</text>
</g>
<!-- 0&#45;&gt;38 -->
<g id="edge51" class="edge" data-name="0-&gt;38">

<path fill="none" stroke="black" d="M92.31,-794.47C93.93,-707.46 102.23,-336.64 127,-291.89 139.99,-268.43 165.23,-251.13 185.9,-240.11" style=""/>
<polygon fill="black" stroke="black" points="187.2,-243.38 194.56,-235.75 184.05,-237.12 187.2,-243.38" style=""/>
<text text-anchor="middle" x="151.87" y="-295.89" font-family="Times,serif" font-size="14.00" style="">[</text>
</g>
<!-- 39 -->
<g id="node41" class="node" pointer-events="visible" data-name="39">

<ellipse fill="none" stroke="black" cx="219.43" cy="-158.69" rx="20.86" ry="20.86" style=""/>
<ellipse fill="none" stroke="black" cx="219.43" cy="-158.69" rx="24.89" ry="24.89" style=""/>
<text text-anchor="middle" x="219.43" y="-154.49" font-family="Times,serif" font-size="14.00" style="">39</text>
</g>
<!-- 0&#45;&gt;39 -->
<g id="edge52" class="edge" data-name="0-&gt;39">

<path fill="none" stroke="black" d="M92.16,-794.36C93.13,-700.45 99.03,-275.87 127,-224.89 139.9,-201.38 165.15,-184.08 185.84,-173.08" style=""/>
<polygon fill="black" stroke="black" points="187.15,-176.34 194.51,-168.72 184.01,-170.09 187.15,-176.34" style=""/>
<text text-anchor="middle" x="151.87" y="-228.89" font-family="Times,serif" font-size="14.00" style="">]</text>
</g>
<!-- 40 -->
<g id="node42" class="node" pointer-events="visible" data-name="40">

<ellipse fill="none" stroke="black" cx="219.43" cy="-91.69" rx="20.86" ry="20.86" style=""/>
<ellipse fill="none" stroke="black" cx="219.43" cy="-91.69" rx="24.89" ry="24.89" style=""/>
<text text-anchor="middle" x="219.43" y="-87.49" font-family="Times,serif" font-size="14.00" style="">40</text>
</g>
<!-- 0&#45;&gt;40 -->
<g id="edge53" class="edge" data-name="0-&gt;40">

<path fill="none" stroke="black" d="M92.05,-794.29C92.42,-693.93 95.82,-215.13 127,-157.89 139.83,-134.34 165.08,-117.05 185.8,-106.05" style=""/>
<polygon fill="black" stroke="black" points="187.11,-109.31 194.48,-101.7 183.97,-103.06 187.11,-109.31" style=""/>
<text text-anchor="middle" x="151.87" y="-161.89" font-family="Times,serif" font-size="14.00" style="">{</text>
</g>
<!-- 41 -->
<g id="node43" class="node" pointer-events="visible" data-name="41">

<ellipse fill="none" stroke="black" cx="219.43" cy="-24.69" rx="20.86" ry="20.86" style=""/>
<ellipse fill="none" stroke="black" cx="219.43" cy="-24.69" rx="24.89" ry="24.89" style=""/>
<text text-anchor="middle" x="219.43" y="-20.49" font-family="Times,serif" font-size="14.00" style="">41</text>
</g>
<!-- 0&#45;&gt;41 -->
<g id="edge54" class="edge" data-name="0-&gt;41">

<path fill="none" stroke="black" d="M91.95,-794.53C91.77,-688.72 92.58,-154.47 127,-90.89 139.85,-67.16 165.34,-49.8 186.15,-38.83" style=""/>
<polygon fill="black" stroke="black" points="187.47,-42.08 194.86,-34.49 184.34,-35.82 187.47,-42.08" style=""/>
<text text-anchor="middle" x="151.87" y="-94.89" font-family="Times,serif" font-size="14.00" style="">}</text>
</g>
<!-- 2&#45;&gt;2 -->
<g id="edge4" class="edge" data-name="2-&gt;2">

<path fill="none" stroke="black" d="M210.67,-1605.27C209.46,-1615.54 212.38,-1624.69 219.43,-1624.69 223.62,-1624.69 226.35,-1621.47 227.62,-1616.69" style=""/>
<polygon fill="black" stroke="black" points="231.11,-1616.95 228.12,-1606.79 224.12,-1616.6 231.11,-1616.95" style=""/>
<text text-anchor="middle" x="219.43" y="-1628.89" font-family="Times,serif" font-size="14.00" style="">[0-9]</text>
</g>
<!-- 3 -->
<g id="node6" class="node" pointer-events="visible" data-name="3">

<ellipse fill="none" stroke="black" cx="315.71" cy="-1584.69" rx="18" ry="18" style=""/>
<text text-anchor="middle" x="315.71" y="-1580.49" font-family="Times,serif" font-size="14.00" style="">3</text>
</g>
<!-- 2&#45;&gt;3 -->
<g id="edge5" class="edge" data-name="2-&gt;3">

<path fill="none" stroke="black" d="M241.82,-1584.69C254.98,-1584.69 272,-1584.69 286.28,-1584.69" style=""/>
<polygon fill="black" stroke="black" points="285.98,-1588.19 295.98,-1584.69 285.98,-1581.19 285.98,-1588.19" style=""/>
<text text-anchor="middle" x="267.57" y="-1588.89" font-family="Times,serif" font-size="14.00" style="">\.</text>
</g>
<!-- 4 -->
<g id="node5" class="node" pointer-events="visible" data-name="4">

<ellipse fill="none" stroke="black" cx="426.39" cy="-1584.69" rx="18" ry="18" style=""/>
<ellipse fill="none" stroke="black" cx="426.39" cy="-1584.69" rx="22" ry="22" style=""/>
<text text-anchor="middle" x="426.39" y="-1580.49" font-family="Times,serif" font-size="14.00" style="">4</text>
</g>
<!-- 4&#45;&gt;4 -->
<g id="edge7" class="edge" data-name="4-&gt;4">

<path fill="none" stroke="black" d="M418.72,-1605.68C417.77,-1615.78 420.33,-1624.69 426.39,-1624.69 429.99,-1624.69 432.35,-1621.55 433.48,-1616.89" style=""/>
<polygon fill="black" stroke="black" points="436.96,-1617.36 433.98,-1607.2 429.97,-1617 436.96,-1617.36" style=""/>
<text text-anchor="middle" x="426.39" y="-1628.89" font-family="Times,serif" font-size="14.00" style="">[0-9]</text>
</g>
<!-- 3&#45;&gt;4 -->
<g id="edge6" class="edge" data-name="3-&gt;4">

<path fill="none" stroke="black" d="M334.17,-1584.69C349.97,-1584.69 373.65,-1584.69 392.92,-1584.69" style=""/>
<polygon fill="black" stroke="black" points="392.73,-1588.19 402.73,-1584.69 392.73,-1581.19 392.73,-1588.19" style=""/>
<text text-anchor="middle" x="372.39" y="-1588.89" font-family="Times,serif" font-size="14.00" style="">[0-9]</text>
</g>
<!-- 5&#45;&gt;5 -->
<g id="edge10" class="edge" data-name="5-&gt;5">

<path fill="none" stroke="black" d="M216.46,-1440.91C216.22,-1450.49 217.21,-1458.69 219.43,-1458.69 220.68,-1458.69 221.54,-1456.1 222.02,-1452.12" style=""/>
<polygon fill="black" stroke="black" points="225.5,-1452.53 222.35,-1442.42 218.51,-1452.29 225.5,-1452.53" style=""/>
<text text-anchor="middle" x="219.43" y="-1462.89" font-family="Times,serif" font-size="14.00" style="">[A-Za-z]</text>
</g>
<!-- 5&#45;&gt;5 -->
<g id="edge11" class="edge" data-name="5-&gt;5">

<path fill="none" stroke="black" d="M214.3,-1440.41C212.17,-1458.21 213.88,-1476.69 219.43,-1476.69 223.81,-1476.69 225.8,-1465.18 225.4,-1451.59" style=""/>
<polygon fill="black" stroke="black" points="228.91,-1451.63 224.68,-1441.92 221.93,-1452.15 228.91,-1451.63" style=""/>
<text text-anchor="middle" x="219.43" y="-1480.89" font-family="Times,serif" font-size="14.00" style="">[0-9]</text>
</g>
<!-- 5&#45;&gt;5 -->
<g id="edge12" class="edge" data-name="5-&gt;5">

<path fill="none" stroke="black" d="M212.88,-1440.09C208.08,-1465.3 210.26,-1494.69 219.43,-1494.69 227.27,-1494.69 230.01,-1473.18 227.63,-1451.18" style=""/>
<polygon fill="black" stroke="black" points="231.13,-1450.97 226.21,-1441.59 224.21,-1451.99 231.13,-1450.97" style=""/>
<text text-anchor="middle" x="219.43" y="-1498.89" font-family="Times,serif" font-size="14.00" style="">_</text>
</g>
<!-- 9 -->
<g id="node8" class="node" pointer-events="visible" data-name="9">

<ellipse fill="none" stroke="black" cx="512.97" cy="-1408.69" rx="18" ry="18" style=""/>
<ellipse fill="none" stroke="black" cx="512.97" cy="-1408.69" rx="22" ry="22" style=""/>
<text text-anchor="middle" x="512.97" y="-1404.49" font-family="Times,serif" font-size="14.00" style="">9</text>
</g>
<!-- 7 -->
<g id="node10" class="node" pointer-events="visible" data-name="7">

<ellipse fill="none" stroke="black" cx="426.39" cy="-1408.69" rx="18" ry="18" style=""/>
<text text-anchor="middle" x="426.39" y="-1404.49" font-family="Times,serif" font-size="14.00" style="">7</text>
</g>
<!-- 6&#45;&gt;7 -->
<g id="edge14" class="edge" data-name="6-&gt;7">

<path fill="none" stroke="black" d="M234.7,-1370.55C242.57,-1375.74 252.65,-1381.99 262.13,-1386.69 312.51,-1411.7 330.16,-1412.13 386.39,-1410.69 389.69,-1410.61 393.15,-1410.48 396.59,-1410.34" style=""/>
<polygon fill="black" stroke="black" points="396.59,-1413.84 406.41,-1409.85 396.25,-1406.85 396.59,-1413.84" style=""/>
<text text-anchor="middle" x="315.71" y="-1413.89" font-family="Times,serif" font-size="14.00" style="">[^\\']</text>
</g>
<!-- 8 -->
<g id="node11" class="node" pointer-events="visible" data-name="8">

<ellipse fill="none" stroke="black" cx="315.71" cy="-1370.69" rx="18" ry="18" style=""/>
<text text-anchor="middle" x="315.71" y="-1366.49" font-family="Times,serif" font-size="14.00" style="">8</text>
</g>
<!-- 6&#45;&gt;8 -->
<g id="edge15" class="edge" data-name="6-&gt;8">

<path fill="none" stroke="black" d="M237.72,-1362.53C251.28,-1363.97 270.43,-1366 286.24,-1367.67" style=""/>
<polygon fill="black" stroke="black" points="285.71,-1371.14 296.02,-1368.71 286.45,-1364.18 285.71,-1371.14" style=""/>
<text text-anchor="middle" x="267.57" y="-1369.89" font-family="Times,serif" font-size="14.00" style="">\</text>
</g>
<!-- 7&#45;&gt;9 -->
<g id="edge17" class="edge" data-name="7-&gt;9">

<path fill="none" stroke="black" d="M444.5,-1408.69C454.5,-1408.69 467.44,-1408.69 479.31,-1408.69" style=""/>
<polygon fill="black" stroke="black" points="479.16,-1412.19 489.16,-1408.69 479.16,-1405.19 479.16,-1412.19" style=""/>
<text text-anchor="middle" x="468.33" y="-1412.89" font-family="Times,serif" font-size="14.00" style="">'</text>
</g>
<!-- 8&#45;&gt;7 -->
<g id="edge16" class="edge" data-name="8-&gt;7">

<path fill="none" stroke="black" d="M333.39,-1376.03C347.54,-1380.62 368.37,-1387.48 386.39,-1393.89 390.37,-1395.31 394.57,-1396.86 398.68,-1398.39" style=""/>
<polygon fill="black" stroke="black" points="397.12,-1401.54 407.71,-1401.81 399.6,-1395 397.12,-1401.54" style=""/>
<text text-anchor="middle" x="372.39" y="-1397.89" font-family="Times,serif" font-size="14.00" style="">.</text>
</g>
<!-- 12 -->
<g id="node12" class="node" pointer-events="visible" data-name="12">

<ellipse fill="none" stroke="black" cx="315.71" cy="-1309.69" rx="20.86" ry="20.86" style=""/>
<ellipse fill="none" stroke="black" cx="315.71" cy="-1309.69" rx="24.89" ry="24.89" style=""/>
<text text-anchor="middle" x="315.71" y="-1305.49" font-family="Times,serif" font-size="14.00" style="">12</text>
</g>
<!-- 10&#45;&gt;12 -->
<g id="edge22" class="edge" data-name="10-&gt;12">

<path fill="none" stroke="black" d="M239.06,-1277.6C251.29,-1282.79 267.62,-1289.71 281.98,-1295.81" style=""/>
<polygon fill="black" stroke="black" points="280.51,-1298.98 291.08,-1299.67 283.24,-1292.54 280.51,-1298.98" style=""/>
<text text-anchor="middle" x="267.57" y="-1294.89" font-family="Times,serif" font-size="14.00" style="">"</text>
</g>
<!-- 10&#45;&gt;10 -->
<g id="edge19" class="edge" data-name="10-&gt;10">

<path fill="none" stroke="black" d="M210.72,-1289.2C209.38,-1299.29 212.29,-1308.39 219.43,-1308.39 223.67,-1308.39 226.42,-1305.18 227.67,-1300.46" style=""/>
<polygon fill="black" stroke="black" points="231.16,-1300.85 228.08,-1290.72 224.17,-1300.56 231.16,-1300.85" style=""/>
<text text-anchor="middle" x="219.43" y="-1312.59" font-family="Times,serif" font-size="14.00" style="">[^\\"]</text>
</g>
<!-- 11 -->
<g id="node14" class="node" pointer-events="visible" data-name="11">

<ellipse fill="none" stroke="black" cx="315.71" cy="-1246.69" rx="20.89" ry="20.89" style=""/>
<text text-anchor="middle" x="315.71" y="-1242.49" font-family="Times,serif" font-size="14.00" style="">11</text>
</g>
<!-- 10&#45;&gt;11 -->
<g id="edge20" class="edge" data-name="10-&gt;11">

<path fill="none" stroke="black" d="M239.97,-1264.93C252.65,-1261.83 269.45,-1257.74 283.9,-1254.21" style=""/>
<polygon fill="black" stroke="black" points="284.52,-1257.66 293.4,-1251.89 282.86,-1250.86 284.52,-1257.66" style=""/>
<text text-anchor="middle" x="267.57" y="-1262.89" font-family="Times,serif" font-size="14.00" style="">\</text>
</g>
<!-- 11&#45;&gt;10 -->
<g id="edge21" class="edge" data-name="11-&gt;10">

<path fill="none" stroke="black" d="M296.36,-1238.13C286.1,-1234.53 273.19,-1231.97 262.13,-1235.89 255.21,-1238.34 248.6,-1242.49 242.77,-1247.05" style=""/>
<polygon fill="black" stroke="black" points="240.72,-1244.19 235.45,-1253.38 245.3,-1249.48 240.72,-1244.19" style=""/>
<text text-anchor="middle" x="267.57" y="-1239.89" font-family="Times,serif" font-size="14.00" style="">.</text>
</g>
<!-- 14 -->
<g id="node15" class="node" pointer-events="visible" data-name="14">

<ellipse fill="none" stroke="black" cx="315.71" cy="-1148.69" rx="20.86" ry="20.86" style=""/>
<ellipse fill="none" stroke="black" cx="315.71" cy="-1148.69" rx="24.89" ry="24.89" style=""/>
<text text-anchor="middle" x="315.71" y="-1144.49" font-family="Times,serif" font-size="14.00" style="">14</text>
</g>
<!-- 14&#45;&gt;14 -->
<g id="edge25" class="edge" data-name="14-&gt;14">

<path fill="none" stroke="black" d="M306.79,-1172.4C306.06,-1182.63 309.03,-1191.39 315.71,-1191.39 319.67,-1191.39 322.33,-1188.3 323.68,-1183.65" style=""/>
<polygon fill="black" stroke="black" points="327.15,-1184.17 324.5,-1173.91 320.18,-1183.58 327.15,-1184.17" style=""/>
<text text-anchor="middle" x="315.71" y="-1195.59" font-family="Times,serif" font-size="14.00" style="">[^\n]</text>
</g>
<!-- 17 -->
<g id="node16" class="node" pointer-events="visible" data-name="17">

<ellipse fill="none" stroke="black" cx="512.97" cy="-1050.69" rx="20.86" ry="20.86" style=""/>
<ellipse fill="none" stroke="black" cx="512.97" cy="-1050.69" rx="24.89" ry="24.89" style=""/>
<text text-anchor="middle" x="512.97" y="-1046.49" font-family="Times,serif" font-size="14.00" style="">17</text>
</g>
<!-- 13&#45;&gt;14 -->
<g id="edge24" class="edge" data-name="13-&gt;14">

<path fill="none" stroke="black" d="M237.29,-1199.61C250.53,-1190.9 269.31,-1178.55 285.06,-1168.19" style=""/>
<polygon fill="black" stroke="black" points="286.69,-1171.31 293.13,-1162.89 282.85,-1165.46 286.69,-1171.31" style=""/>
<text text-anchor="middle" x="267.57" y="-1184.89" font-family="Times,serif" font-size="14.00" style="">/</text>
</g>
<!-- 15 -->
<g id="node18" class="node" pointer-events="visible" data-name="15">

<ellipse fill="none" stroke="black" cx="315.71" cy="-1050.69" rx="20.89" ry="20.89" style=""/>
<text text-anchor="middle" x="315.71" y="-1046.49" font-family="Times,serif" font-size="14.00" style="">15</text>
</g>
<!-- 13&#45;&gt;15 -->
<g id="edge26" class="edge" data-name="13-&gt;15">

<path fill="none" stroke="black" d="M234.03,-1195.16C237.49,-1190.92 241.09,-1186.23 244.13,-1181.69 266.57,-1148.14 287.91,-1106.74 301.14,-1079.58" style=""/>
<polygon fill="black" stroke="black" points="304.12,-1081.45 305.3,-1070.93 297.81,-1078.42 304.12,-1081.45" style=""/>
<text text-anchor="middle" x="267.57" y="-1153.89" font-family="Times,serif" font-size="14.00" style="">*</text>
</g>
<!-- 15&#45;&gt;15 -->
<g id="edge27" class="edge" data-name="15-&gt;15">

<path fill="none" stroke="black" d="M307,-1070.2C305.66,-1080.29 308.56,-1089.39 315.71,-1089.39 319.95,-1089.39 322.7,-1086.18 323.95,-1081.46" style=""/>
<polygon fill="black" stroke="black" points="327.44,-1081.85 324.35,-1071.72 320.44,-1081.56 327.44,-1081.85" style=""/>
<text text-anchor="middle" x="315.71" y="-1093.59" font-family="Times,serif" font-size="14.00" style="">[^\*]</text>
</g>
<!-- 16 -->
<g id="node19" class="node" pointer-events="visible" data-name="16">

<ellipse fill="none" stroke="black" cx="426.39" cy="-1050.69" rx="20.89" ry="20.89" style=""/>
<text text-anchor="middle" x="426.39" y="-1046.49" font-family="Times,serif" font-size="14.00" style="">16</text>
</g>
<!-- 15&#45;&gt;16 -->
<g id="edge28" class="edge" data-name="15-&gt;16">

<path fill="none" stroke="black" d="M336.9,-1050.69C352.91,-1050.69 375.58,-1050.69 393.96,-1050.69" style=""/>
<polygon fill="black" stroke="black" points="393.8,-1054.19 403.8,-1050.69 393.8,-1047.19 393.8,-1054.19" style=""/>
<text text-anchor="middle" x="372.39" y="-1054.89" font-family="Times,serif" font-size="14.00" style="">*</text>
</g>
<!-- 16&#45;&gt;17 -->
<g id="edge30" class="edge" data-name="16-&gt;17">

<path fill="none" stroke="black" d="M447.43,-1050.69C456.14,-1050.69 466.61,-1050.69 476.55,-1050.69" style=""/>
<polygon fill="black" stroke="black" points="476.34,-1054.19 486.34,-1050.69 476.34,-1047.19 476.34,-1054.19" style=""/>
<text text-anchor="middle" x="468.33" y="-1054.89" font-family="Times,serif" font-size="14.00" style="">/</text>
</g>
<!-- 16&#45;&gt;15 -->
<g id="edge29" class="edge" data-name="16-&gt;15">

<path fill="none" stroke="black" d="M408.66,-1039.45C402.02,-1035.62 394.13,-1031.83 386.39,-1029.89 374.32,-1026.88 370.51,-1027.04 358.4,-1029.89 353.62,-1031.02 348.76,-1032.78 344.13,-1034.82" style=""/>
<polygon fill="black" stroke="black" points="342.65,-1031.65 335.23,-1039.21 345.75,-1037.92 342.65,-1031.65" style=""/>
<text text-anchor="middle" x="372.39" y="-1033.89" font-family="Times,serif" font-size="14.00" style="">[^/]</text>
</g>
<!-- 23 -->
<g id="node25" class="node" pointer-events="visible" data-name="23">

<ellipse fill="none" stroke="black" cx="315.71" cy="-879.69" rx="20.86" ry="20.86" style=""/>
<ellipse fill="none" stroke="black" cx="315.71" cy="-879.69" rx="24.89" ry="24.89" style=""/>
<text text-anchor="middle" x="315.71" y="-875.49" font-family="Times,serif" font-size="14.00" style="">23</text>
</g>
<!-- 22&#45;&gt;23 -->
<g id="edge36" class="edge" data-name="22-&gt;23">

<path fill="none" stroke="black" d="M244.71,-879.69C255.16,-879.69 267.58,-879.69 279.04,-879.69" style=""/>
<polygon fill="black" stroke="black" points="279,-883.19 289,-879.69 279,-876.19 279,-883.19" style=""/>
<text text-anchor="middle" x="267.57" y="-883.89" font-family="Times,serif" font-size="14.00" style="">=</text>
</g>
<!-- 25 -->
<g id="node27" class="node" pointer-events="visible" data-name="25">

<ellipse fill="none" stroke="black" cx="315.71" cy="-812.69" rx="20.86" ry="20.86" style=""/>
<ellipse fill="none" stroke="black" cx="315.71" cy="-812.69" rx="24.89" ry="24.89" style=""/>
<text text-anchor="middle" x="315.71" y="-808.49" font-family="Times,serif" font-size="14.00" style="">25</text>
</g>
<!-- 24&#45;&gt;25 -->
<g id="edge38" class="edge" data-name="24-&gt;25">

<path fill="none" stroke="black" d="M244.71,-812.69C255.16,-812.69 267.58,-812.69 279.04,-812.69" style=""/>
<polygon fill="black" stroke="black" points="279,-816.19 289,-812.69 279,-809.19 279,-816.19" style=""/>
<text text-anchor="middle" x="267.57" y="-816.89" font-family="Times,serif" font-size="14.00" style="">=</text>
</g>
<!-- 27 -->
<g id="node29" class="node" pointer-events="visible" data-name="27">

<ellipse fill="none" stroke="black" cx="315.71" cy="-745.69" rx="20.86" ry="20.86" style=""/>
<ellipse fill="none" stroke="black" cx="315.71" cy="-745.69" rx="24.89" ry="24.89" style=""/>
<text text-anchor="middle" x="315.71" y="-741.49" font-family="Times,serif" font-size="14.00" style="">27</text>
</g>
<!-- 26&#45;&gt;27 -->
<g id="edge40" class="edge" data-name="26-&gt;27">

<path fill="none" stroke="black" d="M244.71,-745.69C255.16,-745.69 267.58,-745.69 279.04,-745.69" style=""/>
<polygon fill="black" stroke="black" points="279,-749.19 289,-745.69 279,-742.19 279,-749.19" style=""/>
<text text-anchor="middle" x="267.57" y="-749.89" font-family="Times,serif" font-size="14.00" style="">=</text>
</g>
<!-- 29 -->
<g id="node31" class="node" pointer-events="visible" data-name="29">

<ellipse fill="none" stroke="black" cx="315.71" cy="-678.69" rx="20.86" ry="20.86" style=""/>
<ellipse fill="none" stroke="black" cx="315.71" cy="-678.69" rx="24.89" ry="24.89" style=""/>
<text text-anchor="middle" x="315.71" y="-674.49" font-family="Times,serif" font-size="14.00" style="">29</text>
</g>
<!-- 28&#45;&gt;29 -->
<g id="edge42" class="edge" data-name="28-&gt;29">

<path fill="none" stroke="black" d="M244.71,-678.69C255.16,-678.69 267.58,-678.69 279.04,-678.69" style=""/>
<polygon fill="black" stroke="black" points="279,-682.19 289,-678.69 279,-675.19 279,-682.19" style=""/>
<text text-anchor="middle" x="267.57" y="-682.89" font-family="Times,serif" font-size="14.00" style="">=</text>
</g>
<!-- 31 -->
<g id="node33" class="node" pointer-events="visible" data-name="31">

<ellipse fill="none" stroke="black" cx="315.71" cy="-611.69" rx="20.86" ry="20.86" style=""/>
<ellipse fill="none" stroke="black" cx="315.71" cy="-611.69" rx="24.89" ry="24.89" style=""/>
<text text-anchor="middle" x="315.71" y="-607.49" font-family="Times,serif" font-size="14.00" style="">31</text>
</g>
<!-- 30&#45;&gt;31 -->
<g id="edge44" class="edge" data-name="30-&gt;31">

<path fill="none" stroke="black" d="M240.43,-614.85C251.6,-614.37 265.86,-613.77 278.89,-613.21" style=""/>
<polygon fill="black" stroke="black" points="279.04,-616.71 288.88,-612.79 278.74,-609.72 279.04,-616.71" style=""/>
<text text-anchor="middle" x="267.57" y="-617.89" font-family="Times,serif" font-size="14.00" style="">&amp;</text>
</g>
<!-- 33 -->
<g id="node35" class="node" pointer-events="visible" data-name="33">

<ellipse fill="none" stroke="black" cx="315.71" cy="-544.69" rx="20.86" ry="20.86" style=""/>
<ellipse fill="none" stroke="black" cx="315.71" cy="-544.69" rx="24.89" ry="24.89" style=""/>
<text text-anchor="middle" x="315.71" y="-540.49" font-family="Times,serif" font-size="14.00" style="">33</text>
</g>
<!-- 32&#45;&gt;33 -->
<g id="edge46" class="edge" data-name="32-&gt;33">

<path fill="none" stroke="black" d="M240.43,-554.15C251.8,-552.7 266.36,-550.85 279.58,-549.16" style=""/>
<polygon fill="black" stroke="black" points="279.76,-552.67 289.23,-547.94 278.87,-545.73 279.76,-552.67" style=""/>
<text text-anchor="middle" x="267.57" y="-554.89" font-family="Times,serif" font-size="14.00" style="">|</text>
</g>
</g>
</svg>